Coordinates
version=1
nRows=16
nColumns=30
inDegrees=yes

Units are S.I. units (second, meters, Newtons, ...)
Angles are in degrees.

endheader
time	floatyaw	floatroll	floatpitch	floatx	floaty	floatz	pro_sup_l	deviation_l	flexion_l	cmc_flexion_l	cmc_abduction_l	mp_flexion_l	ip_flexion_l	2mcp_flexion_l	2mcp_abduction_l	2pm_flexion_l	2md_flexion_l	3mcp_flexion_l	3mcp_abduction_l	3pm_flexion_l	3md_flexion_l	4mcp_flexion_l	4mcp_abduction_l	4pm_flexion_l	4md_flexion_l	5mcp_flexion_l	5mcp_abduction_l	5pm_flexion_l	5md_flexion_l
-0.495000	-2.172711	-3.701800	97.553456	-0.100043	-0.188548	-0.033736	85.890587	2.642838	-1.826436	12.077647	6.205269	-22.779817	-35.015370	39.731344	10.385973	47.881218	33.018056	23.726024	5.516042	46.660185	32.492850	12.773375	-4.911013	61.861583	42.652587	7.512212	-10.508563	61.945166	42.041049
-0.485000	-2.172711	-3.701800	97.553456	-0.100068	-0.188535	-0.033747	85.886644	2.654549	-1.835033	12.080477	6.157967	-22.775513	-35.002416	39.743954	10.333834	47.878827	33.000806	23.766959	5.517999	46.653546	32.479227	12.821518	-4.912361	61.810286	42.617770	7.488219	-10.447736	61.909208	42.022458
-0.475000	-2.172711	-3.701800	97.553456	-0.100093	-0.188523	-0.033759	85.883745	2.673104	-1.845692	12.072943	6.104240	-22.779622	-34.995478	39.764660	10.277812	47.876563	32.980262	23.810306	5.515913	46.648526	32.465594	12.868003	-4.914883	61.767002	42.588490	7.449084	-10.377012	61.857615	42.001437
-0.465000	-2.172711	-3.701800	97.553456	-0.100120	-0.188518	-0.033769	85.875137	2.693068	-1.858270	12.056864	6.049286	-22.792302	-34.994845	39.783274	10.226271	47.872927	32.958400	23.847605	5.510464	46.647648	32.454502	12.904650	-4.918322	61.739261	42.568680	7.408032	-10.308842	61.793725	41.979112
-0.455000	-2.172711	-3.701800	97.553456	-0.100149	-0.188521	-0.033777	85.855967	2.707966	-1.870934	12.034026	6.001317	-22.811066	-34.998594	39.790401	10.186499	47.867773	32.937948	23.872117	5.504220	46.654671	32.449132	12.926157	-4.921809	61.731522	42.560101	7.383246	-10.257968	61.727107	41.957134
-0.445000	-2.172711	-3.701800	97.553456	-0.100182	-0.188530	-0.033782	85.826540	2.713301	-1.879580	12.005820	5.968645	-22.831378	-35.003139	39.782044	10.160670	47.863231	32.921961	23.880807	5.500186	46.673666	32.452536	12.931471	-4.923942	61.742966	42.561559	7.389476	-10.235749	61.669541	41.937023
-0.435000	-2.172711	-3.701800	97.553456	-0.100217	-0.188535	-0.033784	85.793895	2.708695	-1.878596	11.973557	5.957041	-22.848391	-35.004720	39.761258	10.144019	47.863277	32.913167	23.874709	5.500024	46.707259	32.466497	12.923496	-4.923240	61.767419	42.569294	7.430128	-10.244580	61.629961	41.919597
-0.425000	-2.172711	-3.701800	97.553456	-0.100252	-0.188525	-0.033780	85.770318	2.697889	-1.863109	11.939079	5.967548	-22.859202	-35.001308	39.735957	10.126681	47.871685	32.912983	23.858635	5.503090	46.754076	32.490003	12.908041	-4.918862	61.795706	42.578372	7.494075	-10.274961	61.611175	41.904916
-0.415000	-2.172711	-3.701800	97.553456	-0.100278	-0.188487	-0.033764	85.768404	2.686392	-1.831474	11.905049	5.995226	-22.864433	-34.993873	39.714115	10.098421	47.889302	32.920582	23.840789	5.506925	46.806735	32.518123	12.892708	-4.911213	61.818958	42.584234	7.559684	-10.307391	61.609347	41.892600
-0.405000	-2.172711	-3.701800	97.553456	-0.100288	-0.188412	-0.033727	85.794277	2.678162	-1.786684	11.874462	6.030213	-22.867985	-34.986104	39.699243	10.053468	47.912723	32.932792	23.831717	5.508878	46.852615	32.542655	12.885803	-4.902000	61.831023	42.583669	7.605362	-10.319464	61.615372	41.881952
-0.395000	-2.172711	-3.701800	97.553456	-0.100271	-0.188295	-0.033661	85.842516	2.673792	-1.736434	11.849422	6.061987	-22.874851	-34.982477	39.688886	9.992436	47.936050	32.945353	23.841700	5.507881	46.878668	32.555236	12.895152	-4.893538	61.829482	42.575092	7.621874	-10.295553	61.616964	41.871487
-0.385000	-2.172711	-3.701800	97.553456	-0.100217	-0.188139	-0.033561	85.896471	2.671839	-1.692369	11.829680	6.085133	-22.888299	-34.985834	39.676928	9.920440	47.955033	32.955000	23.876759	5.505319	46.878728	32.551789	12.926702	-4.887636	61.815855	42.558448	7.618982	-10.234101	61.601286	41.858327
-0.375000	-2.172711	-3.701800	97.553456	-0.100120	-0.187951	-0.033427	85.935012	2.672459	-1.668615	11.811784	6.102800	-22.908364	-34.996085	39.657644	9.843308	47.970533	32.960912	23.934989	5.504556	46.858947	32.535438	12.982838	-4.884821	61.795338	42.534898	7.620542	-10.148166	61.558825	41.838620
-0.365000	-2.172711	-3.701800	97.553456	-0.099975	-0.187742	-0.033266	85.942889	2.680324	-1.678950	11.789812	6.125063	-22.932566	-35.010907	39.628074	9.764961	47.988111	32.964250	24.005402	5.509289	46.836653	32.515157	13.060346	-4.884292	61.775483	42.506138	7.649130	-10.058750	61.488747	41.809763
-0.355000	-2.172711	-3.701800	97.553456	-0.099784	-0.187525	-0.033085	85.919482	2.703916	-1.732329	11.758330	6.163214	-22.957878	-35.027754	39.586989	9.687492	48.013152	32.965901	24.070460	5.521492	46.831309	32.499952	13.148652	-4.884330	61.763214	42.473363	7.709257	-9.984938	61.403524	41.773559
-0.345000	-2.172711	-3.701800	97.553456	-0.099549	-0.187309	-0.032894	85.881213	2.750644	-1.827877	11.717061	6.224127	-22.981893	-35.045510	39.532218	9.612860	48.044375	32.963958	24.111692	5.539897	46.851635	32.491854	13.229770	-4.882714	61.760619	42.436336	7.780682	-9.936248	61.328026	41.737624
